<svg id="Layer_1" data-name="Layer 1" xmlns="http://www.w3.org/2000/svg" xmlns:xlink="http://www.w3.org/1999/xlink" viewBox="0 0 355.44 235.23"><defs><style>.cls-1{fill:#fff;}.cls-2{fill:#bdd631;}.cls-3{fill:#eee32b;}.cls-4{fill:url(#linear-gradient);}.cls-5{fill:url(#linear-gradient-2);}.cls-6{fill:url(#linear-gradient-3);}.cls-7{fill:url(#linear-gradient-4);}.cls-8{fill:url(#linear-gradient-5);}.cls-9{fill:url(#linear-gradient-6);}.cls-10{fill:url(#linear-gradient-7);}</style><linearGradient id="linear-gradient" x1="336.3" y1="259.13" x2="438.06" y2="259.13" gradientTransform="translate(-80.88 104.4) rotate(-17.52)" gradientUnits="userSpaceOnUse"><stop offset="0" stop-color="#e7e514"/><stop offset="0.7" stop-color="#dadd1b"/><stop offset="1" stop-color="#c3cf24"/></linearGradient><linearGradient id="linear-gradient-2" x1="384.08" y1="258.86" x2="407.97" y2="258.86" xlink:href="#linear-gradient"/><linearGradient id="linear-gradient-3" x1="358.56" y1="260.04" x2="384.11" y2="260.04" xlink:href="#linear-gradient"/><linearGradient id="linear-gradient-4" x1="394.44" y1="265.8" x2="424.97" y2="265.8" xlink:href="#linear-gradient"/><linearGradient id="linear-gradient-5" x1="349.04" y1="273.64" x2="379.78" y2="273.64" xlink:href="#linear-gradient"/><linearGradient id="linear-gradient-6" x1="385.35" y1="289.78" x2="400.45" y2="289.78" xlink:href="#linear-gradient"/><linearGradient id="linear-gradient-7" x1="361.56" y1="301.49" x2="372.85" y2="301.49" xlink:href="#linear-gradient"/></defs><title>Final-Logo-Lemonaide</title><path class="cls-1" d="M361.3,420.5v-6.28l-2.93-12.9H361l1.51,9.41,1.51-9.41h2.6l-2.93,12.9v6.28H361.3Z" transform="translate(-191.28 -185.27)"/><path class="cls-1" d="M374.58,419l-1.51,1.51h-4.21L367.34,419V402.83l1.51-1.51h4.21l1.51,1.51V419Zm-4.32-15.6-0.5.5v14l0.5,0.5h1.39l0.5-.5v-14l-0.5-.5h-1.39Z" transform="translate(-191.28 -185.27)"/><path class="cls-1" d="M381.72,420.5h-4.06L376.14,419V401.32h2.42v16.61l0.5,0.5h1.24l0.5-.5V401.32h2.42V419Z" transform="translate(-191.28 -185.27)"/><path class="cls-1" d="M384.87,401.32h5.6l1.51,1.51v8l-1.34,1.34,1.51,8.35h-2.35l-1.49-8.18h-1v8.18h-2.42V401.32Zm4.69,8.53v-6l-0.5-.5H387.3v7h1.77Z" transform="translate(-191.28 -185.27)"/><path class="cls-1" d="M397.67,402.83l1.51-1.51h3.74l1.51,1.51v4.32H402v-3.31l-0.5-.5h-0.91l-0.5.5v14.08l0.5,0.5h0.91l0.5-.5v-3.28h2.42V419l-1.51,1.51h-3.74L397.67,419V402.83Z" transform="translate(-191.28 -185.27)"/><path class="cls-1" d="M408,415.55l-0.48,4.95h-2.42l2.3-19.18h3.48l2.35,19.18h-2.52l-0.48-4.95H408Zm1.11-11.74-0.93,9.67h1.87Z" transform="translate(-191.28 -185.27)"/><path class="cls-1" d="M414.29,401.32h5.6l1.51,1.51v8l-1.34,1.34,1.51,8.35h-2.35l-1.49-8.18h-1v8.18h-2.42V401.32Zm4.69,8.53v-6l-0.5-.5h-1.77v7h1.77Z" transform="translate(-191.28 -185.27)"/><path class="cls-1" d="M423.13,401.32h6v2.07h-3.56v6.36h3.1v2.07h-3.1v6.61h3.61v2.07h-6V401.32Z" transform="translate(-191.28 -185.27)"/><path class="cls-1" d="M430.44,401.32h6v2.07h-3.56v6.36H436v2.07h-3.1v6.61h3.61v2.07h-6V401.32Z" transform="translate(-191.28 -185.27)"/><path class="cls-1" d="M437.76,401.32h5.6l1.51,1.51v8l-1.34,1.34,1.51,8.35h-2.35l-1.49-8.18h-1v8.18h-2.42V401.32Zm4.69,8.53v-6l-0.5-.5h-1.77v7H442Z" transform="translate(-191.28 -185.27)"/><path class="cls-1" d="M450.55,402.83l1.51-1.51h3.74l1.51,1.51v4.32h-2.42v-3.31l-0.5-.5h-0.91l-0.5.5v14.08l0.5,0.5h0.91l0.5-.5v-3.28h2.42V419l-1.51,1.51h-3.74L450.55,419V402.83Z" transform="translate(-191.28 -185.27)"/><path class="cls-1" d="M458.7,401.32h6v2.07h-3.56v6.36h3.1v2.07h-3.1v6.61h3.61v2.07h-6V401.32Z" transform="translate(-191.28 -185.27)"/><path class="cls-1" d="M466,401.32h2.63l2.78,13.3v-13.3h2.2V420.5H471l-2.78-13.1v13.1H466V401.32Z" transform="translate(-191.28 -185.27)"/><path class="cls-1" d="M479.4,403.33V420.5H477V403.33h-2.3v-2h7v2h-2.3Z" transform="translate(-191.28 -185.27)"/><path class="cls-1" d="M482.75,401.32h6v2.07h-3.56v6.36h3.1v2.07h-3.1v6.61h3.61v2.07h-6V401.32Z" transform="translate(-191.28 -185.27)"/><path class="cls-1" d="M490.07,401.32h5.6l1.51,1.51v8l-1.34,1.34,1.51,8.35H495l-1.49-8.18h-1v8.18h-2.42V401.32Zm4.69,8.53v-6l-0.5-.5h-1.77v7h1.77Z" transform="translate(-191.28 -185.27)"/><path class="cls-1" d="M508.84,403.38h-3.48V410h3.13V412h-3.13v8.45h-2.42V401.32h5.91v2.07Z" transform="translate(-191.28 -185.27)"/><path class="cls-1" d="M510,401.32h2.42V420.5H510V401.32Z" transform="translate(-191.28 -185.27)"/><path class="cls-1" d="M514.07,401.32h2.63l2.78,13.3v-13.3h2.2V420.5H519l-2.78-13.1v13.1h-2.2V401.32Z" transform="translate(-191.28 -185.27)"/><path class="cls-1" d="M530.52,402.83V419L529,420.5h-5.68V401.32H529Zm-2.42,15.09v-14l-0.5-.5h-1.84v15h1.84Z" transform="translate(-191.28 -185.27)"/><path class="cls-1" d="M532.11,401.32h6v2.07h-3.56v6.36h3.1v2.07h-3.1v6.61h3.61v2.07h-6V401.32Z" transform="translate(-191.28 -185.27)"/><path class="cls-1" d="M539.42,401.32H545l1.51,1.51v8l-1.34,1.34,1.51,8.35h-2.35l-1.49-8.18h-1v8.18h-2.42V401.32Zm4.69,8.53v-6l-0.5-.5h-1.77v7h1.77Z" transform="translate(-191.28 -185.27)"/><path class="cls-2" d="M191.28,393.65v-94.8h12v84.57H219.1v10.23H191.28Z" transform="translate(-191.28 -185.27)"/><path class="cls-2" d="M224.46,298.85H254v10.23H236.44v31.43h15.34v10.23H236.44v32.68h17.84v10.23H224.46v-94.8Z" transform="translate(-191.28 -185.27)"/><path class="cls-2" d="M280.84,393.65l-9.36-74.35v74.35H260.63v-94.8H278l8.86,76.59,8.86-76.59H313.4v94.8H302V319.3l-9.36,74.35H280.84Z" transform="translate(-191.28 -185.27)"/><path class="cls-2" d="M357.06,386.17l-7.48,7.48H328.74l-7.48-7.48V306.33l7.48-7.48h20.83l7.48,7.48v79.83Zm-21.33-77.09-2.49,2.5v69.36l2.49,2.5h6.86l2.5-2.5V311.57l-2.5-2.5h-6.86Z" transform="translate(-191.28 -185.27)"/><path class="cls-2" d="M364.91,298.85h13l13.72,65.74V298.85h10.85v94.8h-13l-13.72-64.74v64.74H364.91v-94.8Z" transform="translate(-191.28 -185.27)"/><path class="cls-3" d="M422,369.2l-2.37,24.45h-12L419,298.85h17.21l11.6,94.8H435.39L433,369.2H422Zm5.49-58L422.91,359h9.23Z" transform="translate(-191.28 -185.27)"/><path class="cls-3" d="M453.1,298.85h12v94.8h-12v-94.8Z" transform="translate(-191.28 -185.27)"/><path class="cls-3" d="M508.85,306.33v79.83l-7.49,7.48H473.3v-94.8h28.07Zm-12,74.59V311.57l-2.5-2.5h-9.11v74.35h9.11Z" transform="translate(-191.28 -185.27)"/><path class="cls-3" d="M516.71,298.85h29.56v10.23H528.68v31.43H544v10.23H528.68v32.68h17.84v10.23H516.71v-94.8Z" transform="translate(-191.28 -185.27)"/><path class="cls-2" d="M331.61,214.9a19.87,19.87,0,0,0,9.93-5.35,1.43,1.43,0,0,1,.71-0.51,14.54,14.54,0,0,1,3,.55,2.7,2.7,0,0,1,.92,1.2,13.82,13.82,0,0,1,.79,1.47c0.65,1.39,1.75,2.61,1.73,4.28a0.77,0.77,0,0,0,.62.27,14.11,14.11,0,0,0,1.27-.64c0.64-.29.62-0.58,0.11-1-1.88-1.62-2.17-3.13-.76-5.17a12.31,12.31,0,0,1,2.6-2.41c4.95-3.9,7.89-8.78,7.56-15.28a22.75,22.75,0,0,0-1.42-7c-0.68.45-1.29,0.83-1.86,1.26a19.76,19.76,0,0,0-6.91,8.5c-1.57,4-1.34,8-.37,12.07a1.27,1.27,0,0,1,0,.85c-0.53.87-1.13,1.69-1.75,2.59-1.32-2.47-2.63-4.93-3.92-7.39a1,1,0,0,1-.08-0.62l0.24-1c-1.86-.24-4-0.27-4.63,1.05,0.93,0.28,1.84.62,2.78,0.87a0.44,0.44,0,0,1,.25.2c0.7,1.31,1.4,2.62,2.1,3.93l-0.15.24a24.38,24.38,0,0,1-3.41-.87,24.7,24.7,0,0,0-8.21-2.09c-4.62-.21-8.52,1.57-12,4.4-1,.79-1.87,1.69-2.92,2.65C322.27,214.35,326.71,215.77,331.61,214.9Z" transform="translate(-191.28 -185.27)"/><path class="cls-4" d="M418.8,232.08l-6,2.94c-7.1-12-17.38-19.63-31.1-22.26-10.44-2-20.3-.19-29.67,4.8-17.7,9.44-29.33,32.94-19.52,57l-5.86,2.89c-6.36-15.37-6.24-30.57,1.84-45.06,10.56-18.93,27.2-28.14,48.82-26.82C395.72,206.72,409.37,216.14,418.8,232.08Z" transform="translate(-191.28 -185.27)"/><path class="cls-5" d="M365.36,235.23c-1.92-3.9-3.8-7.82-5.78-11.69-0.83-1.62-.55-2.57,1.22-3.2a38.17,38.17,0,0,1,20.89-1.4c1.83,0.38,2.23,1.43,1.67,3.08-2.82,8.29-5.61,16.6-8.5,24.87a2.77,2.77,0,0,1-1.73,1.7,2.8,2.8,0,0,1-1.87-1.51C369.22,243.17,367.31,239.19,365.36,235.23Z" transform="translate(-191.28 -185.27)"/><path class="cls-6" d="M361.75,237.12c2,4,4,7.9,5.81,11.91a2.86,2.86,0,0,1-.06,2.41,2.55,2.55,0,0,1-2.23.27c-8.38-2.78-16.74-5.66-25.1-8.49-1.74-.59-2.09-1.63-1.3-3.24a38.49,38.49,0,0,1,13.7-15.58c1.65-1.07,2.61-.73,3.43,1C357.86,229.34,359.83,233.22,361.75,237.12Z" transform="translate(-191.28 -185.27)"/><path class="cls-7" d="M393.34,244.75c-4,1.95-7.89,3.94-11.89,5.81-0.71.33-2.1,0.5-2.41,0.12a3.17,3.17,0,0,1-.34-2.6c2.74-8.31,5.59-16.58,8.38-24.88,0.58-1.74,1.59-2.14,3.21-1.35a38.14,38.14,0,0,1,15.59,13.64c1.26,1.92,1,2.55-1,3.58C401,241,397.18,242.86,393.34,244.75Z" transform="translate(-191.28 -185.27)"/><path class="cls-8" d="M352.37,264.95c-4,1.95-7.92,3.86-11.84,5.86-1.65.84-2.63,0.44-3.23-1.26A38.39,38.39,0,0,1,336,248.47c0.33-1.52,1.2-2.09,2.78-1.55,8.47,2.9,17,5.75,25.43,8.7a2.42,2.42,0,0,1,1.45,1.66,2.65,2.65,0,0,1-1.39,1.77C360.3,261.08,356.32,263,352.37,264.95Z" transform="translate(-191.28 -185.27)"/><path class="cls-9" d="M374.06,253.85c3.57,1.49,7.43,3,11.16,4.69a7,7,0,0,1,3.85,8.62,7.63,7.63,0,0,1-7.81,5.48,7.18,7.18,0,0,1-6.75-6,24.58,24.58,0,0,1-.24-3.31C374.18,260.1,374.13,256.87,374.06,253.85Zm11.12,15.49,0.29-1.48a3.93,3.93,0,0,0-1.79-.27,3.8,3.8,0,0,1-4.62-.88,3.7,3.7,0,0,0-1.78-.33,4,4,0,0,0,.07,1.85C378.85,270.41,382.56,271,385.18,269.34Z" transform="translate(-191.28 -185.27)"/><path class="cls-1" d="M385.18,269.34c-2.62,1.7-6.33,1.07-7.82-1.12a4,4,0,0,1-.07-1.85,3.7,3.7,0,0,1,1.78.33,3.8,3.8,0,0,0,4.62.88,3.93,3.93,0,0,1,1.79.27Z" transform="translate(-191.28 -185.27)"/><path class="cls-10" d="M361,273c1.51,2.48,3.2,5.07,4.7,7.77a5.28,5.28,0,0,1-1.47,6.92,5.72,5.72,0,0,1-7.15-.12A5.38,5.38,0,0,1,355.6,281a18.43,18.43,0,0,1,1.31-2.11C358.29,276.86,359.67,274.88,361,273Zm-0.09,14.3,0.83-.77a2.94,2.94,0,0,0-1-1,2.85,2.85,0,0,1-2.41-2.57,2.77,2.77,0,0,0-.93-1,3,3,0,0,0-.77,1.15C356.57,285.17,358.54,287.18,360.88,287.31Z" transform="translate(-191.28 -185.27)"/><path class="cls-1" d="M360.88,287.31c-2.34-.13-4.31-2.15-4.25-4.13a3,3,0,0,1,.77-1.15,2.77,2.77,0,0,1,.93,1,2.85,2.85,0,0,0,2.41,2.57,2.94,2.94,0,0,1,1,1Z" transform="translate(-191.28 -185.27)"/></svg>