<?xml version="1.0" encoding="UTF-8" standalone="no"?>
<!-- Generator: Adobe Illustrator 19.2.1, SVG Export Plug-In . SVG Version: 6.00 Build 0)  -->

<svg
   xmlns:dc="http://purl.org/dc/elements/1.1/"
   xmlns:cc="http://creativecommons.org/ns#"
   xmlns:rdf="http://www.w3.org/1999/02/22-rdf-syntax-ns#"
   xmlns:svg="http://www.w3.org/2000/svg"
   xmlns="http://www.w3.org/2000/svg"
   xmlns:sodipodi="http://sodipodi.sourceforge.net/DTD/sodipodi-0.dtd"
   xmlns:inkscape="http://www.inkscape.org/namespaces/inkscape"
   version="1.1"
   id="Layer_1"
   x="0px"
   y="0px"
   viewBox="0 0 326.00001 82.09984"
   xml:space="preserve"
   inkscape:version="0.91 r"
   sodipodi:docname="lemonaide-logo.svg"
   width="326"
   height="82.099838"><metadata
     id="metadata3844"><rdf:RDF><cc:Work
         rdf:about=""><dc:format>image/svg+xml</dc:format><dc:type
           rdf:resource="http://purl.org/dc/dcmitype/StillImage" /><dc:title>Final-Logo-Lemonaide</dc:title></cc:Work></rdf:RDF></metadata><defs
     id="defs3842" /><sodipodi:namedview
     pagecolor="#ffffff"
     bordercolor="#666666"
     borderopacity="1"
     objecttolerance="10"
     gridtolerance="10"
     guidetolerance="10"
     inkscape:pageopacity="0"
     inkscape:pageshadow="2"
     inkscape:window-width="1680"
     inkscape:window-height="1023"
     id="namedview3840"
     showgrid="false"
     showborder="true"
     fit-margin-top="0"
     fit-margin-left="0"
     fit-margin-right="0"
     fit-margin-bottom="0"
     inkscape:zoom="3.579932"
     inkscape:cx="163"
     inkscape:cy="37.400129"
     inkscape:window-x="0"
     inkscape:window-y="0"
     inkscape:window-maximized="1"
     inkscape:current-layer="Layer_1" /><style
     type="text/css"
     id="style3709">
	.st0{fill:#FFFFFF;}
	.st1{fill:#BDD631;}
	.st2{fill:#EEE32B;}
	.st3{fill:url(#SVGID_1_);}
	.st4{fill:url(#SVGID_2_);}
	.st5{fill:url(#SVGID_3_);}
	.st6{fill:url(#SVGID_4_);}
	.st7{fill:url(#SVGID_5_);}
	.st8{fill:url(#SVGID_6_);}
	.st9{fill:url(#SVGID_7_);}
</style><title
     id="title3711">Final-Logo-Lemonaide</title><path
     class="st0"
     d="m 204.1,81.999842 0,-4.099988 -1.9,-8.499976 1.7,0 1,6.199982 1,-6.199982 1.7,0 -1.9,8.499976 0,4.099988 -1.6,0 z"
     id="path3713"
     inkscape:connector-curvature="0"
     style="fill:#ffffff" /><path
     class="st0"
     d="m 212.8,80.999845 -1,0.999997 -2.8,0 -1,-0.999997 0,-10.59997 1,-0.999997 2.8,0 1,0.999997 0,10.59997 0,0 z m -2.8,-10.19997 -0.3,0.299997 0,9.199973 0.3,0.3 0.9,0 0.3,-0.3 0,-9.199973 -0.3,-0.299997 -0.9,0 z"
     id="path3715"
     inkscape:connector-curvature="0"
     style="fill:#ffffff" /><path
     class="st0"
     d="m 217.5,81.999842 -2.7,0 -1,-0.999997 0,-11.599967 1.6,0 0,10.899967 0.3,0.3 0.8,0 0.3,-0.3 0,-10.899967 1.6,0 0,11.599967 -0.9,0.999997 z"
     id="path3717"
     inkscape:connector-curvature="0"
     style="fill:#ffffff" /><path
     class="st0"
     d="m 219.6,69.399878 3.7,0 1,0.999997 0,5.199985 -0.9,0.899997 1,5.499985 -1.5,0 -1,-5.399985 -0.7,0 0,5.399985 -1.6,0 0,-12.599964 0,0 z m 3,5.599985 0,-3.899991 -0.3,-0.299997 -1.2,0 0,4.599985 1.2,0 0.3,-0.399997 z"
     id="path3719"
     inkscape:connector-curvature="0"
     style="fill:#ffffff" /><path
     class="st0"
     d="m 228,70.399875 1,-0.999997 2.5,0 1,0.999997 0,2.799991 -1.6,0 0,-2.099994 -0.3,-0.299997 -0.6,0 -0.3,0.299997 0,9.199973 0.3,0.3 0.6,0 0.3,-0.3 0,-2.199994 1.6,0 0,2.899994 -1,0.999997 -2.5,0 -1,-0.999997 0,-10.59997 z"
     id="path3721"
     inkscape:connector-curvature="0"
     style="fill:#ffffff" /><path
     class="st0"
     d="m 234.7,78.799851 -0.3,3.199991 -1.6,0 1.5,-12.599964 2.3,0 1.5,12.599964 -1.7,0 -0.3,-3.199991 -1.4,0 z m 0.8,-7.699979 -0.6,6.299982 1.2,0 -0.6,-6.299982 z"
     id="path3723"
     inkscape:connector-curvature="0"
     style="fill:#ffffff" /><path
     class="st0"
     d="m 238.9,69.399878 3.7,0 1,0.999997 0,5.199985 -0.9,0.899997 1,5.499985 -1.5,0 -1,-5.399985 -0.7,0 0,5.399985 -1.6,0 0,-12.599964 0,0 z m 3,5.599985 0,-3.899991 -0.3,-0.299997 -1.2,0 0,4.599985 1.2,0 0.3,-0.399997 z"
     id="path3725"
     inkscape:connector-curvature="0"
     style="fill:#ffffff" /><path
     class="st0"
     d="m 244.6,69.399878 3.9,0 0,1.399997 -2.3,0 0,4.199988 2,0 0,1.399994 -2,0 0,4.299988 2.4,0 0,1.399994 -3.9,0 -0.1,-12.699961 0,0 z"
     id="path3727"
     inkscape:connector-curvature="0"
     style="fill:#ffffff" /><path
     class="st0"
     d="m 249.4,69.399878 3.9,0 0,1.399997 -2.3,0 0,4.199988 2,0 0,1.399994 -2,0 0,4.299988 2.4,0 0,1.399994 -3.9,0 -0.1,-12.699961 0,0 z"
     id="path3729"
     inkscape:connector-curvature="0"
     style="fill:#ffffff" /><path
     class="st0"
     d="m 254.2,69.399878 3.7,0 1,0.999997 0,5.199985 -0.9,0.899997 1,5.499985 -1.5,0 -1,-5.399985 -0.7,0 0,5.399985 -1.5,0 -0.1,-12.599964 0,0 z m 3.1,5.599985 0,-3.899991 -0.3,-0.299997 -1.2,0 0,4.599985 1.2,0 0.3,-0.399997 z"
     id="path3731"
     inkscape:connector-curvature="0"
     style="fill:#ffffff" /><path
     class="st0"
     d="m 262.6,70.399875 1,-0.999997 2.5,0 1,0.999997 0,2.799991 -1.6,0 0,-2.099994 -0.3,-0.299997 -0.6,0 -0.3,0.299997 0,9.199973 0.3,0.3 0.6,0 0.3,-0.3 0,-2.199994 1.6,0 0,2.899994 -1,0.999997 -2.5,0 -1,-0.999997 0,-10.59997 z"
     id="path3733"
     inkscape:connector-curvature="0"
     style="fill:#ffffff" /><path
     class="st0"
     d="m 268,69.399878 3.9,0 0,1.399997 -2.3,0 0,4.199988 2,0 0,1.399994 -2,0 0,4.299988 2.4,0 0,1.399994 -3.9,0 -0.1,-12.699961 0,0 z"
     id="path3735"
     inkscape:connector-curvature="0"
     style="fill:#ffffff" /><path
     class="st0"
     d="m 272.7,69.399878 1.7,0 1.8,8.699973 0,-8.699973 1.4,0 0,12.599964 -1.7,0 -1.8,-8.599976 0,8.599976 -1.5,0 0,-12.599964 0.1,0 z"
     id="path3737"
     inkscape:connector-curvature="0"
     style="fill:#ffffff" /><path
     class="st0"
     d="m 281.5,70.699875 0,11.299967 -1.6,0 0,-11.299967 -1.5,0 0,-1.299997 4.6,0 0,1.299997 -1.5,0 0,0 z"
     id="path3739"
     inkscape:connector-curvature="0"
     style="fill:#ffffff" /><path
     class="st0"
     d="m 283.7,69.399878 3.9,0 0,1.399997 -2.3,0 0,4.199988 2,0 0,1.399994 -2,0 0,4.299988 2.4,0 0,1.399994 -3.9,0 -0.1,-12.699961 0,0 z"
     id="path3741"
     inkscape:connector-curvature="0"
     style="fill:#ffffff" /><path
     class="st0"
     d="m 288.5,69.399878 3.7,0 1,0.999997 0,5.199985 -0.9,0.899997 1,5.499985 -1.5,0 -1,-5.399985 -0.7,0 0,5.399985 -1.6,0 0,-12.599964 0,0 z m 3.1,5.599985 0,-3.899991 -0.3,-0.299997 -1.2,0 0,4.599985 1.2,0 0.3,-0.399997 z"
     id="path3743"
     inkscape:connector-curvature="0"
     style="fill:#ffffff" /><path
     class="st0"
     d="m 300.8,70.799875 -2.3,0 0,4.299985 2.1,0 0,1.299997 -2.1,0 0,5.499985 -1.6,0 0,-12.499964 3.9,0 0,1.399997 0,0 z"
     id="path3745"
     inkscape:connector-curvature="0"
     style="fill:#ffffff" /><path
     class="st0"
     d="m 301.6,69.399878 1.6,0 0,12.599964 -1.6,0 0,-12.599964 z"
     id="path3747"
     inkscape:connector-curvature="0"
     style="fill:#ffffff" /><path
     class="st0"
     d="m 304.3,69.399878 1.7,0 1.8,8.699973 0,-8.699973 1.4,0 0,12.599964 -1.8,0 -1.8,-8.599976 0,8.599976 -1.4,0 0.1,-12.599964 0,0 z"
     id="path3749"
     inkscape:connector-curvature="0"
     style="fill:#ffffff" /><path
     class="st0"
     d="m 315,70.399875 0,10.59997 -1,0.999997 -3.7,0 0,-12.599964 3.7,0 1,0.999997 z m -1.5,9.89997 0,-9.199973 -0.3,-0.299997 -1.2,0 0,9.79997 1.2,0 0.3,-0.3 z"
     id="path3751"
     inkscape:connector-curvature="0"
     style="fill:#ffffff" /><path
     class="st0"
     d="m 316.1,69.399878 3.9,0 0,1.399997 -2.3,0 0,4.199988 2,0 0,1.399994 -2,0 0,4.299988 2.4,0 0,1.399994 -3.9,0 -0.1,-12.699961 0,0 z"
     id="path3753"
     inkscape:connector-curvature="0"
     style="fill:#ffffff" /><path
     class="st0"
     d="m 320.9,69.399878 3.7,0 1,0.999997 0,5.199985 -0.9,0.899997 1,5.499985 -1.5,0 -1,-5.399985 -0.7,0 0,5.399985 -1.6,0 0,-12.599964 0,0 z m 3,5.599985 0,-3.899991 -0.3,-0.299997 -1.2,0 0,4.599985 1.2,0 0.3,-0.399997 z"
     id="path3755"
     inkscape:connector-curvature="0"
     style="fill:#ffffff" /><path
     class="st1"
     d="M 82.8,64.899883 82.8,0 91,0 l 0,57.899904 10.8,0 0,6.999979 -19,0 z"
     id="path3757"
     inkscape:connector-curvature="0"
     style="fill:#bdd631" /><path
     class="st1"
     d="m 105.5,0 20.2,0 0,6.9999993 -12,0 0,21.4999917 10.5,0 0,6.999979 -10.5,0 0,22.399934 12.2,0 0,6.999979 -20.4,0 L 105.5,0 l 0,0 z"
     id="path3759"
     inkscape:connector-curvature="0"
     style="fill:#bdd631" /><path
     class="st1"
     d="m 144.1,64.899883 -6.4,-50.899886 0,50.899886 -7.4,0 L 130.3,0 142.2,0 148.3,52.499919 154.4,0 l 12.1,0 0,64.899883 -7.8,0 0,-50.899886 -6.4,50.899886 -8.2,0 z"
     id="path3761"
     inkscape:connector-curvature="0"
     style="fill:#bdd631" /><path
     class="st1"
     d="m 196.3,59.799898 -5.1,5.099985 -14.3,0 -5.1,-5.099985 0,-54.6998986 L 176.9,0 l 14.3,0 5.1,5.0999994 0,54.6998986 0,0 z M 181.7,6.9999993 180,8.6999968 l 0,47.4999102 1.7,1.699997 4.7,0 1.7,-1.699997 0,-47.4999102 -1.7,-1.6999975 -4.7,0 0,0 z"
     id="path3763"
     inkscape:connector-curvature="0"
     style="fill:#bdd631" /><path
     class="st1"
     d="M 201.7,0 210.6,0 220,44.999943 220,0 l 7.4,0 0,64.899883 -8.9,0 -9.4,-44.299886 0,44.299886 -7.4,0 L 201.7,0 l 0,0 z"
     id="path3765"
     inkscape:connector-curvature="0"
     style="fill:#bdd631" /><path
     class="st2"
     d="m 240.8,48.199931 -1.6,16.699952 -8.2,0 L 238.8,0 l 11.8,0 7.9,64.899883 -8.5,0 -1.6,-16.699952 c 0,0 -7.6,0 -7.6,0 z m 3.7,-39.6999342 -3.1,32.6999552 6.3,0 -3.2,-32.6999552 z"
     id="path3767"
     inkscape:connector-curvature="0"
     style="fill:#eee32b" /><path
     class="st2"
     d="m 262.1,0 8.2,0 0,64.899883 -8.2,0 L 262.1,0 l 0,0 z"
     id="path3769"
     inkscape:connector-curvature="0"
     style="fill:#eee32b" /><path
     class="st2"
     d="m 300.3,5.0999994 0,54.6998986 -5.1,5.099985 -19.2,0 L 276,0 l 19.2,0 5.1,5.0999994 z m -8.3,51.0999076 0,-47.4999102 -1.7,-1.6999975 -6.2,0 0,50.8999047 6.2,0 1.7,-1.699997 z"
     id="path3771"
     inkscape:connector-curvature="0"
     style="fill:#eee32b" /><path
     class="st2"
     d="m 305.7,0 20.2,0 0,6.9999993 -12,0 0,21.4999917 10.4,0 0,6.999979 -10.5,0 0,22.399934 12.2,0 0,6.999979 -20.4,0 L 305.7,0 l 0,0 z"
     id="path3773"
     inkscape:connector-curvature="0"
     style="fill:#eee32b" /><path
     class="st1"
     d="m 9.4,20.299997 c 2.6,-0.5 4.9,-1.8 6.8,-3.7 0.1,-0.2 0.3,-0.3 0.5,-0.3 0.7,0.1 1.4,0.2 2.1,0.4 0.3,0.2 0.5,0.5 0.6,0.8 0.2,0.3 0.4,0.7 0.5,1 0.4,1 1.2,1.8 1.2,2.9 0.1,0.1 0.3,0.2 0.4,0.2 0.3,-0.1 0.6,-0.3 0.9,-0.4 0.4,-0.2 0.4,-0.4 0.1,-0.7 -1.3,-1.1 -1.5,-2.1 -0.5,-3.5 0.5,-0.6 1.1,-1.2 1.8,-1.7 3.4,-2.7 5.4,-6.0000002 5.2,-10.4999975 C 28.9,3.1999996 28.6,1.4999998 28,0 27.5,0.2999999 27.1,0.5999999 26.7,0.8999999 24.6,2.3999997 23,4.3999995 22,6.6999993 c -1.1,2.6999975 -0.9,5.4999977 -0.3,8.2999977 0.1,0.2 0.1,0.4 0,0.6 -0.4,0.6 -0.8,1.2 -1.2,1.8 -0.9,-1.7 -1.8,-3.4 -2.7,-5.1 -0.1,-0.1 -0.1,-0.3 -0.1,-0.4 l 0.2,-0.7 c -1.3,-0.2 -2.7,-0.2 -3.2,0.7 0.6,0.2 1.3,0.4 1.9,0.6 0.1,0 0.1,0.1 0.2,0.1 0.5,0.9 1,1.8 1.4,2.7 l -0.1,0.2 c -0.8,-0.1 -1.6,-0.3 -2.3,-0.6 -1.8,-0.8 -3.7,-1.3 -5.6,-1.4 -3.2,-0.1 -5.8,1.1 -8.2,3 -0.7,0.5 -1.3,1.2 -2,1.8 3,1.6 6.1,2.6 9.4,2 z"
     id="path3775"
     inkscape:connector-curvature="0"
     style="fill:#bdd631" /><linearGradient
     id="SVGID_1_"
     gradientUnits="userSpaceOnUse"
     x1="-45.3451"
     y1="1195.2646"
     x2="24.3785"
     y2="1195.2646"
     gradientTransform="matrix(0.9536,-0.301,0.301,0.9536,-316.621,-1109.0173)"><stop
       offset="0"
       style="stop-color:#E7E514"
       id="stop3778" /><stop
       offset="0.7"
       style="stop-color:#DADD1B"
       id="stop3780" /><stop
       offset="1"
       style="stop-color:#C3CF24"
       id="stop3782" /></linearGradient><path
     class="st3"
     d="M 69.1,31.999982 65,33.999976 C 60.1,25.799997 53.1,20.599997 43.7,18.799997 c -7.2,-1.4 -13.9,-0.1 -20.3,3.3 C 11.3,28.599991 3.3,44.599943 10,61.099892 L 6,63.099886 C 1.6,52.599919 1.7,42.199949 7.3,32.199979 14.5,19.199997 25.9,12.899997 40.7,13.799997 c 12.6,0.9 22,7.3 28.4,18.199985 z"
     id="path3784"
     inkscape:connector-curvature="0"
     style="fill:url(#SVGID_1_)" /><linearGradient
     id="SVGID_2_"
     gradientUnits="userSpaceOnUse"
     x1="-12.5851"
     y1="1195.0828"
     x2="3.7820001"
     y2="1195.0828"
     gradientTransform="matrix(0.9536,-0.301,0.301,0.9536,-316.621,-1109.0173)"><stop
       offset="0"
       style="stop-color:#E7E514"
       id="stop3787" /><stop
       offset="0.7"
       style="stop-color:#DADD1B"
       id="stop3789" /><stop
       offset="1"
       style="stop-color:#C3CF24"
       id="stop3791" /></linearGradient><path
     class="st4"
     d="m 32.5,34.199973 c -1.3,-2.699991 -2.6,-5.399982 -4,-7.999976 -0.6,-1.1 -0.4,-1.8 0.8,-2.2 4.6,-1.6 9.5,-2 14.3,-1 1.3,0.3 1.5,1 1.1,2.1 -1.9,5.699988 -3.8,11.39997 -5.8,16.999952 -0.2,0.5 -0.6,0.999997 -1.2,1.199997 -0.6,-0.1 -1,-0.499997 -1.3,-0.999997 -1.2,-2.699991 -2.5,-5.399982 -3.9,-8.099976 z"
     id="path3793"
     inkscape:connector-curvature="0"
     style="fill:url(#SVGID_2_)" /><linearGradient
     id="SVGID_3_"
     gradientUnits="userSpaceOnUse"
     x1="-30.057199"
     y1="1196.0959"
     x2="-12.5644"
     y2="1196.0959"
     gradientTransform="matrix(0.9536,-0.301,0.301,0.9536,-316.621,-1109.0173)"><stop
       offset="0"
       style="stop-color:#E7E514"
       id="stop3796" /><stop
       offset="0.7"
       style="stop-color:#DADD1B"
       id="stop3798" /><stop
       offset="1"
       style="stop-color:#C3CF24"
       id="stop3800" /></linearGradient><path
     class="st5"
     d="m 30.1,35.49997 c 1.4,2.699991 2.7,5.399985 4,8.199976 0.2,0.499997 0.2,1.099997 0,1.699994 -0.5,0.3 -1,0.4 -1.5,0.2 -5.7,-1.899994 -11.5,-3.899988 -17.2,-5.799982 -1.2,-0.4 -1.4,-1.099997 -0.9,-2.199994 2.1,-4.299988 5.3,-7.999976 9.4,-10.699967 1.1,-0.7 1.8,-0.5 2.3,0.699997 1.2,2.599991 2.5,5.199985 3.9,7.899976 z"
     id="path3802"
     inkscape:connector-curvature="0"
     style="fill:url(#SVGID_3_)" /><linearGradient
     id="SVGID_4_"
     gradientUnits="userSpaceOnUse"
     x1="-5.4684"
     y1="1199.9128"
     x2="15.4385"
     y2="1199.9128"
     gradientTransform="matrix(0.9536,-0.301,0.301,0.9536,-316.621,-1109.0173)"><stop
       offset="0"
       style="stop-color:#E7E514"
       id="stop3805" /><stop
       offset="0.7"
       style="stop-color:#DADD1B"
       id="stop3807" /><stop
       offset="1"
       style="stop-color:#C3CF24"
       id="stop3809" /></linearGradient><path
     class="st6"
     d="m 51.7,40.699955 c -2.7,1.299997 -5.4,2.699991 -8.1,3.999988 -0.5,0.2 -1.4,0.3 -1.7,0.1 -0.3,-0.5 -0.4,-1.199997 -0.2,-1.799994 1.9,-5.699985 3.8,-11.399967 5.7,-16.999952 0.4,-1.2 1.1,-1.5 2.2,-0.9 4.4,2.099997 8,5.299988 10.7,9.299976 0.9,1.299997 0.7,1.699994 -0.7,2.499994 -2.7,1.199994 -5.3,2.499991 -7.9,3.799988 z"
     id="path3811"
     inkscape:connector-curvature="0"
     style="fill:url(#SVGID_4_)" /><linearGradient
     id="SVGID_5_"
     gradientUnits="userSpaceOnUse"
     x1="-36.585098"
     y1="1205.2195"
     x2="-15.5139"
     y2="1205.2195"
     gradientTransform="matrix(0.9536,-0.301,0.301,0.9536,-316.621,-1109.0173)"><stop
       offset="0"
       style="stop-color:#E7E514"
       id="stop3814" /><stop
       offset="0.7"
       style="stop-color:#DADD1B"
       id="stop3816" /><stop
       offset="1"
       style="stop-color:#C3CF24"
       id="stop3818" /></linearGradient><path
     class="st7"
     d="m 23.6,54.499923 c -2.7,1.299997 -5.4,2.599991 -8.1,3.999988 -1.1,0.599997 -1.8,0.3 -2.2,-0.899997 -1.6,-4.599985 -1.9,-9.59997 -0.9,-14.399958 0.2,-0.999997 0.8,-1.399994 1.9,-1.099997 5.8,1.999994 11.6,3.899991 17.4,5.999982 0.5,0.2 0.9,0.6 1,1.099997 -0.1,0.5 -0.5,0.999997 -1,1.199997 -2.6,1.499997 -5.4,2.799991 -8.1,4.099988 z"
     id="path3820"
     inkscape:connector-curvature="0"
     style="fill:url(#SVGID_5_)" /><linearGradient
     id="SVGID_6_"
     gradientUnits="userSpaceOnUse"
     x1="-11.7163"
     y1="1216.2716"
     x2="-1.3744"
     y2="1216.2716"
     gradientTransform="matrix(0.9536,-0.301,0.301,0.9536,-316.621,-1109.0173)"><stop
       offset="0"
       style="stop-color:#E7E514"
       id="stop3823" /><stop
       offset="0.7"
       style="stop-color:#DADD1B"
       id="stop3825" /><stop
       offset="1"
       style="stop-color:#C3CF24"
       id="stop3827" /></linearGradient><path
     class="st8"
     d="m 38.5,46.899947 c 2.4,0.999997 5.1,2.099994 7.6,3.199988 2.3,0.999997 3.4,3.599991 2.6,5.899985 -0.7,2.299991 -2.9,3.899988 -5.3,3.799988 -2.3,-0.1 -4.2,-1.799994 -4.6,-4.099988 -0.1,-0.799997 -0.2,-1.499997 -0.2,-2.299994 0,-2.199994 -0.1,-4.399985 -0.1,-6.499979 z m 7.6,10.699967 0.2,-0.999997 c -0.4,-0.2 -0.8,-0.2 -1.2,-0.2 -1.1,0.6 -2.4,0.3 -3.2,-0.599997 -0.4,-0.2 -0.8,-0.3 -1.2,-0.2 -0.1,0.4 -0.1,0.899997 0,1.299997 1.1,1.399994 3.6,1.799994 5.4,0.699997 z"
     id="path3829"
     inkscape:connector-curvature="0"
     style="fill:url(#SVGID_6_)" /><linearGradient
     id="SVGID_7_"
     gradientUnits="userSpaceOnUse"
     x1="-28.0116"
     y1="1224.3214"
     x2="-20.2791"
     y2="1224.3214"
     gradientTransform="matrix(0.9536,-0.301,0.301,0.9536,-316.621,-1109.0173)"><stop
       offset="0"
       style="stop-color:#E7E514"
       id="stop3832" /><stop
       offset="0.7"
       style="stop-color:#DADD1B"
       id="stop3834" /><stop
       offset="1"
       style="stop-color:#C3CF24"
       id="stop3836" /></linearGradient><path
     class="st9"
     d="m 29.5,60.099905 c 1,1.699997 2.2,3.499991 3.2,5.299985 0.9,1.599997 0.5,3.699988 -1,4.699985 -1.5,1.099997 -3.5,1.099997 -4.9,-0.1 -1.4,-1.099997 -1.8,-2.899994 -1,-4.499988 0.3,-0.499997 0.6,-0.999997 0.9,-1.399997 1,-1.399994 1.9,-2.799991 2.8,-3.999988 z m 0,9.799973 0.6,-0.5 c -0.2,-0.3 -0.4,-0.499997 -0.7,-0.699997 -0.9,-0.1 -1.6,-0.899997 -1.7,-1.799994 -0.2,-0.3 -0.4,-0.5 -0.6,-0.7 -0.2,0.2 -0.4,0.5 -0.5,0.8 -0.1,1.399994 1.3,2.799991 2.9,2.899991 l 0,0 z"
     id="path3838"
     inkscape:connector-curvature="0"
     style="fill:url(#SVGID_7_)" /></svg>